# xmcd
#
# Track frame offsets:
#	150
#	16739
#	32412
#	43279
#	57988
#	76114
#	92919
#	104256
#	123750
#	140260
#	155599
#	175658
#
# Disc length: 2635 seconds
#
# Revision: 1
# Processed by: cddbd v1.5.2PL0 Copyright (c) Steve Scherf et al.
# Submitted via: audiograbber 1.83.01
#
DISCID=8b0a490c
DTITLE=The Cats - The Cats Op Hun Best
DYEAR=1974
DGENRE=Rock
TTITLE0=Lea
TTITLE1=What's The World Coming To
TTITLE2=Excuse Me
TTITLE3=Scarlet Ribbons
TTITLE4=Sunshine
TTITLE5=Let's Go Together
TTITLE6=Don't Waste My Time
TTITLE7=Trying To Explain
TTITLE8=One Way Wind
TTITLE9=Let's Dance
TTITLE10=The End Of The Show
TTITLE11=Rock 'n Roll (I Gave You The Best Years Of My Life)
EXTD=
EXTT0=
EXTT1=
EXTT2=
EXTT3=
EXTT4=
EXTT5=
EXTT6=
EXTT7=
EXTT8=
EXTT9=
EXTT10=
EXTT11=
PLAYORDER=
